<svg width="50" height="50" viewBox="0 0 50 50" fill="none" xmlns="http://www.w3.org/2000/svg">
<path d="M45.2084 38.75V36.6667L47.5 35C47.7084 34.7917 47.9167 34.5833 47.7084 34.375L45.625 30.8333C45.625 30.625 45.2084 30.625 45 30.625L42.5 31.6667C41.875 31.25 41.25 30.8333 40.625 30.625L40.2084 27.9167C40.2084 27.7083 40 27.5 39.7917 27.5H35.625C35.2084 27.5 35 27.7083 35 27.9167L34.5834 30.625C33.9584 31.0417 33.5417 31.25 32.9167 31.6667L30.4167 30.625C30.2084 30.625 30 30.625 29.7917 30.8333L27.7084 34.375C27.7084 34.5833 27.7084 34.7917 27.9167 35L30.2084 36.6667V38.75L27.9167 40.4167C27.7084 40.625 27.5 40.8333 27.7084 41.0417L29.7917 44.5833C30 44.7917 30.2084 44.7917 30.4167 44.7917L32.9167 43.75C33.3334 44.1667 33.9584 44.5833 34.5834 44.7917L35 47.5C35.2084 47.7083 35.4167 47.9167 35.625 47.9167H39.7917C40 47.9167 40.2084 47.7083 40.2084 47.5L40.625 44.7917C41.25 44.375 41.6667 44.1667 42.2917 43.75L44.7917 44.5833C45 44.5833 45.2084 44.5833 45.4167 44.375L47.5 40.8333C47.7084 40.625 47.7084 40.4167 47.5 40.4167L45.2084 38.75M37.5 40.625C35.8334 40.625 34.375 39.1667 34.375 37.5C34.375 35.8333 35.8334 34.375 37.5 34.375C39.1667 34.375 40.625 35.8333 40.625 37.5C40.625 39.1667 39.1667 40.625 37.5 40.625ZM22.9167 37.5C22.9167 29.375 29.375 22.9167 37.5 22.9167C41.6667 22.9167 45.2084 24.5833 47.9167 27.2917V8.33333C47.9167 6.04167 46.0417 4.16667 43.75 4.16667H6.25004C3.95837 4.16667 2.08337 6.04167 2.08337 8.33333V41.6667C2.08337 43.9583 3.95837 45.8333 6.25004 45.8333H25.625C23.9584 43.5417 22.9167 40.625 22.9167 37.5ZM6.25004 8.33333H43.75V14.5833H6.25004V8.33333Z" fill="black"/>
</svg>
