<svg width="50" height="50" viewBox="0 0 50 50" fill="none" xmlns="http://www.w3.org/2000/svg">
<path d="M13.1885 36.2158C13.1885 37.3584 14.1211 38.291 15.2686 38.291H17.6465V44.1699C17.6465 45.6592 18.8428 46.875 20.3125 46.875C21.7871 46.875 22.9785 45.6641 22.9785 44.1699V38.2861H27.1289V44.165C27.1289 45.6543 28.3252 46.8701 29.7949 46.8701C31.2695 46.8701 32.4609 45.6592 32.4609 44.165V38.2861H34.8389C35.9863 38.2861 36.9189 37.3535 36.9189 36.2109V16.9141H13.1885V36.2158V36.2158ZM30.625 6.91406L32.8174 3.74023C32.9443 3.55468 32.915 3.30566 32.7441 3.18359C32.5732 3.0664 32.3291 3.12499 32.2022 3.31054L29.9268 6.61132C28.4277 6.0205 26.7578 5.69335 25.0049 5.69335C23.252 5.69335 21.582 6.0205 20.083 6.61132L17.8076 3.31542C17.6807 3.12988 17.4365 3.0664 17.2656 3.18847C17.0947 3.30566 17.0654 3.5498 17.1924 3.74511L19.3848 6.91894C15.8984 8.54003 13.457 11.6113 13.1445 15.2002H36.875C36.5527 11.6064 34.1064 8.53515 30.625 6.91406V6.91406ZM19.9951 11.9189C19.7353 11.9189 19.4814 11.8419 19.2654 11.6976C19.0494 11.5533 18.881 11.3481 18.7816 11.1081C18.6822 10.8681 18.6562 10.604 18.7069 10.3492C18.7576 10.0944 18.8827 9.86039 19.0663 9.67669C19.25 9.493 19.4841 9.36791 19.7389 9.31722C19.9937 9.26654 20.2578 9.29255 20.4978 9.39197C20.7378 9.49138 20.9429 9.65973 21.0872 9.87573C21.2316 10.0917 21.3086 10.3457 21.3086 10.6055C21.3077 10.9535 21.169 11.2871 20.9229 11.5332C20.6768 11.7794 20.3432 11.918 19.9951 11.9189V11.9189ZM30.1709 11.9189C29.9111 11.9189 29.6572 11.8419 29.4412 11.6976C29.2252 11.5533 29.0568 11.3481 28.9574 11.1081C28.858 10.8681 28.832 10.604 28.8827 10.3492C28.9333 10.0944 29.0584 9.86039 29.2421 9.67669C29.4258 9.493 29.6599 9.36791 29.9147 9.31722C30.1694 9.26654 30.4335 9.29255 30.6735 9.39197C30.9136 9.49138 31.1187 9.65973 31.263 9.87573C31.4073 10.0917 31.4844 10.3457 31.4844 10.6055C31.4835 10.9535 31.3448 11.2871 31.0987 11.5332C30.8525 11.7794 30.519 11.918 30.1709 11.9189ZM41.0791 16.8359C39.6045 16.8359 38.4131 18.0469 38.4131 19.541V30.1074C38.4131 31.5967 39.6094 32.8125 41.0791 32.8125C42.5537 32.8125 43.7451 31.6016 43.7451 30.1074V19.5361C43.75 18.042 42.5586 16.8359 41.0791 16.8359ZM8.9209 16.8359C7.44629 16.8359 6.25488 18.0469 6.25488 19.541V30.1074C6.25488 31.5967 7.45117 32.8125 8.9209 32.8125C10.3955 32.8125 11.5869 31.6016 11.5869 30.1074V19.5361C11.5869 18.042 10.3906 16.8359 8.9209 16.8359Z" fill="black"/>
</svg>
